;TYPE=PLATED
;Layer: PTH_Through
;EasyEDA Pro v2.2.46.11, 2026-03-28 03:42:46
;Gerber Generator version 0.3
M48
METRIC,LZ,0000.00000
;Hole size 1 = 0.30500 METRIC
T01C0.30500
;Hole size 2 = 0.70002 METRIC
T02C0.70002
;Hole size 3 = 0.80101 METRIC
T03C0.80101
;Hole size 4 = 0.88900 METRIC
T04C0.88900
;Hole size 5 = 0.90002 METRIC
T05C0.90002
;Hole size 6 = 0.91440 METRIC
T06C0.91440
;Hole size 7 = 1.00000 METRIC
T07C1.00000
;Hole size 8 = 1.10002 METRIC
T08C1.10002
;Hole size 9 = 1.20000 METRIC
T09C1.20000
;Hole size 10 = 1.40000 METRIC
T10C1.40000
%
G05
G90
T01
X89.281Y-12.065
T02
X73.152Y-58.785
X73.152Y-56.785
X61.484Y-50.673
X63.484Y-50.673
X86.741Y-50.784
X86.741Y-48.784
X71.882Y-53.705
X71.882Y-51.705
X80.772Y-3.794
X80.772Y-1.794
X62.103Y-7.382
X62.103Y-9.382
T03
X89.281Y-40.243
X89.281Y-38.243
T04
X97.53554Y-38.86187
X97.5358Y-36.32238
X97.5358Y-33.78238
X97.5358Y-31.24238
X97.5358Y-28.70238
X97.5358Y-26.16238
T05
X73.53308Y-1.90475
X70.99308Y-1.90475
X68.45308Y-1.90475
X65.91308Y-1.90475
X63.37308Y-1.90475
X60.83308Y-1.90449
X81.661Y-46.228
X66.421Y-43.688
X66.42054Y-38.60744
X66.42054Y-33.52747
X66.42054Y-28.44747
X66.42054Y-23.36747
X66.42054Y-18.28747
X66.42054Y-13.20747
X81.661Y-10.668
X81.66054Y-15.74851
X81.66054Y-20.82851
X81.66054Y-25.90851
X81.66054Y-30.98853
X81.66054Y-36.06851
X81.66054Y-41.14848
X81.66103Y-43.688
X81.66103Y-38.608
X81.66103Y-33.528
X81.66103Y-28.44803
X81.66103Y-23.36803
X81.66103Y-18.28803
X81.66103Y-13.20803
X66.42103Y-10.66797
X66.42103Y-15.74795
X66.42103Y-20.82795
X66.42103Y-25.90795
X66.42103Y-30.98795
X66.42103Y-36.06795
X66.42103Y-41.14792
X66.421Y-46.228
T06
X98.425Y-9.271
X94.107Y-10.16
X89.535Y-9.652
X96.901Y-10.287
X93.091Y-7.874
X87.503Y-9.779
X89.281Y-7.874
X96.901Y-8.001
X61.976Y-3.937
X66.167Y-3.81
X68.58Y-3.937
X74.19144Y-3.81
X76.327Y-3.81
T07
X84.582Y-6.43674
X84.582Y-1.43675
X92.87726Y-55.372
X97.87725Y-55.372
T08
X90.678Y-4.318
X90.678Y-1.778
X93.218Y-4.318
X93.218Y-1.778
X95.758Y-4.318
X95.758Y-1.778
X98.29797Y-4.318
X98.29797Y-1.778
T09
X65.02387Y-58.41505
X67.56387Y-58.42505
X62.48387Y-58.41505
T10
X78.74Y-58.039
X82.55Y-58.039
M30