G04 Layer: BottomLayer*
G04 EasyEDA Pro v2.2.46.11, 2026-03-28 03:42:46*
G04 Gerber Generator version 0.3*
G04 Scale: 100 percent, Rotated: No, Reflected: No*
G04 Dimensions in millimeters*
G04 Leading zeros omitted, absolute positions, 4 integers and 5 decimals*
G04 Generated by one-click*
%FSLAX45Y45*%
%MOMM*%
%ADD10C,0.4*%
%ADD11C,0.254*%
%ADD12C,1.524*%
%ADD13C,1.5*%
%ADD14R,1.5X1.5*%
%ADD15R,1.5748X1.5748*%
%ADD16C,1.5748*%
%ADD17R,2.2X2.2*%
%ADD18C,2.2*%
%ADD19R,1.7009X1.7*%
%ADD20R,1.7X1.7*%
%ADD21C,1.7*%
%ADD22R,1.6X1.6*%
%ADD23C,1.6*%
%ADD24O,1.8X2.59999*%
%ADD25R,1.8X2.59999*%
%ADD26C,1.1*%
%ADD27C,1.2015*%
%ADD28C,0.61*%
%ADD29C,0.5*%
G75*


G04 Copper Start*
G36*
G01X6014654Y-1163000D02*
G01X6279346Y-1163000D01*
G01X6279346Y-3581400D01*
G01X6280704Y-3595184D01*
G01X6284724Y-3608438D01*
G01X6291253Y-3620653D01*
G01X6300040Y-3631360D01*
G01X6517061Y-3848381D01*
G01X6516753Y-3869578D01*
G01X6520013Y-3890525D01*
G01X6526747Y-3910626D01*
G01X6536765Y-3929309D01*
G01X6549782Y-3946042D01*
G01X6565426Y-3960349D01*
G01X6583252Y-3971822D01*
G01X6602753Y-3980135D01*
G01X6623375Y-3985051D01*
G01X6644529Y-3986430D01*
G01X6665614Y-3984234D01*
G01X6674877Y-3993496D01*
G01X6653297Y-3989646D01*
G01X6631377Y-3989605D01*
G01X6609783Y-3993373D01*
G01X6589172Y-4000837D01*
G01X6570172Y-4011770D01*
G01X6553361Y-4025837D01*
G01X6539251Y-4042613D01*
G01X6528271Y-4061585D01*
G01X6520755Y-4082176D01*
G01X6516932Y-4103761D01*
G01X6516918Y-4125681D01*
G01X6520714Y-4147271D01*
G01X6528204Y-4167872D01*
G01X6539160Y-4186858D01*
G01X6553249Y-4203651D01*
G01X6570042Y-4217740D01*
G01X6589028Y-4228696D01*
G01X6609629Y-4236186D01*
G01X6631219Y-4239982D01*
G01X6653139Y-4239968D01*
G01X6674724Y-4236145D01*
G01X6695315Y-4228629D01*
G01X6714287Y-4217649D01*
G01X6731063Y-4203539D01*
G01X6745130Y-4186728D01*
G01X6756063Y-4167728D01*
G01X6763527Y-4147117D01*
G01X6767295Y-4125523D01*
G01X6767254Y-4103603D01*
G01X6763404Y-4082023D01*
G01X7117546Y-4436166D01*
G01X7117546Y-5098812D01*
G01X7105424Y-5113234D01*
G01X7096203Y-5129663D01*
G01X7090204Y-5147522D01*
G01X7087639Y-5166187D01*
G01X7088596Y-5185003D01*
G01X7093044Y-5203310D01*
G01X7100825Y-5220468D01*
G01X7111667Y-5235875D01*
G01X7125191Y-5248992D01*
G01X7140922Y-5259360D01*
G01X7158309Y-5266613D01*
G01X7176744Y-5270500D01*
G01X7158139Y-5274440D01*
G01X7140608Y-5281808D01*
G01X7124775Y-5292343D01*
G01X7111206Y-5305668D01*
G01X7100386Y-5321307D01*
G01X7092701Y-5338703D01*
G01X7088424Y-5357233D01*
G01X7087710Y-5376237D01*
G01X7090583Y-5395036D01*
G01X7096940Y-5412959D01*
G01X7106555Y-5429367D01*
G01X7119085Y-5443673D01*
G01X7134082Y-5455367D01*
G01X7151011Y-5464032D01*
G01X7169268Y-5469357D01*
G01X7188200Y-5471154D01*
G01X7207132Y-5469357D01*
G01X7225389Y-5464032D01*
G01X7242318Y-5455367D01*
G01X7257315Y-5443673D01*
G01X7269845Y-5429367D01*
G01X7279460Y-5412959D01*
G01X7285817Y-5395036D01*
G01X7288690Y-5376237D01*
G01X7287976Y-5357233D01*
G01X7283699Y-5338703D01*
G01X7276014Y-5321307D01*
G01X7265194Y-5305668D01*
G01X7251625Y-5292343D01*
G01X7235792Y-5281808D01*
G01X7218261Y-5274440D01*
G01X7199656Y-5270500D01*
G01X7218091Y-5266613D01*
G01X7235478Y-5259360D01*
G01X7251209Y-5248992D01*
G01X7264733Y-5235875D01*
G01X7275575Y-5220468D01*
G01X7283356Y-5203310D01*
G01X7287804Y-5185003D01*
G01X7288761Y-5166187D01*
G01X7286196Y-5147522D01*
G01X7280197Y-5129663D01*
G01X7270976Y-5113234D01*
G01X7258854Y-5098812D01*
G01X7258854Y-4702800D01*
G01X8040446Y-4702800D01*
G01X8042002Y-4714616D01*
G01X8046563Y-4725627D01*
G01X8053818Y-4735082D01*
G01X8063273Y-4742337D01*
G01X8074284Y-4746898D01*
G01X8086100Y-4748454D01*
G01X8246100Y-4748454D01*
G01X8257916Y-4746898D01*
G01X8268927Y-4742337D01*
G01X8278382Y-4735082D01*
G01X8285637Y-4725627D01*
G01X8290198Y-4714616D01*
G01X8291754Y-4702800D01*
G01X8291754Y-4542800D01*
G01X8290198Y-4530984D01*
G01X8285637Y-4519973D01*
G01X8278382Y-4510518D01*
G01X8268927Y-4503263D01*
G01X8257916Y-4498702D01*
G01X8246100Y-4497146D01*
G01X8086100Y-4497146D01*
G01X8074284Y-4498702D01*
G01X8063273Y-4503263D01*
G01X8053818Y-4510518D01*
G01X8046563Y-4519973D01*
G01X8042002Y-4530984D01*
G01X8040446Y-4542800D01*
G01X8040446Y-4702800D01*
G01X8040446Y-4702800D01*
G01X7258854Y-4702800D01*
G01X7258854Y-4406900D01*
G01X7257496Y-4393116D01*
G01X7253476Y-4379862D01*
G01X7247563Y-4368800D01*
G01X8040446Y-4368800D01*
G01X8042355Y-4390620D01*
G01X8048024Y-4411776D01*
G01X8057281Y-4431627D01*
G01X8069844Y-4449569D01*
G01X8085331Y-4465056D01*
G01X8103273Y-4477619D01*
G01X8123124Y-4486876D01*
G01X8144280Y-4492545D01*
G01X8166100Y-4494454D01*
G01X8187920Y-4492545D01*
G01X8209076Y-4486876D01*
G01X8228927Y-4477619D01*
G01X8246869Y-4465056D01*
G01X8262356Y-4449569D01*
G01X8274919Y-4431627D01*
G01X8284176Y-4411776D01*
G01X8289845Y-4390620D01*
G01X8291754Y-4368800D01*
G01X8289845Y-4346980D01*
G01X8284176Y-4325824D01*
G01X8274919Y-4305973D01*
G01X8262356Y-4288031D01*
G01X8246869Y-4272544D01*
G01X8228927Y-4259981D01*
G01X8209076Y-4250724D01*
G01X8187920Y-4245055D01*
G01X8166100Y-4243146D01*
G01X8166100Y-4243146D01*
G01X8144280Y-4245055D01*
G01X8123124Y-4250724D01*
G01X8103273Y-4259981D01*
G01X8085331Y-4272544D01*
G01X8069844Y-4288031D01*
G01X8057281Y-4305973D01*
G01X8048024Y-4325824D01*
G01X8042355Y-4346980D01*
G01X8040446Y-4368800D01*
G01X7247563Y-4368800D01*
G01X7246947Y-4367647D01*
G01X7238160Y-4356940D01*
G01X6996020Y-4114800D01*
G01X8040446Y-4114800D01*
G01X8042355Y-4136620D01*
G01X8048024Y-4157776D01*
G01X8057281Y-4177627D01*
G01X8069844Y-4195569D01*
G01X8085331Y-4211056D01*
G01X8103273Y-4223619D01*
G01X8123124Y-4232876D01*
G01X8144280Y-4238545D01*
G01X8166100Y-4240454D01*
G01X8187920Y-4238545D01*
G01X8209076Y-4232876D01*
G01X8228927Y-4223619D01*
G01X8246869Y-4211056D01*
G01X8262356Y-4195569D01*
G01X8274919Y-4177627D01*
G01X8284176Y-4157776D01*
G01X8289845Y-4136620D01*
G01X8291754Y-4114800D01*
G01X8289845Y-4092980D01*
G01X8284176Y-4071824D01*
G01X8274919Y-4051973D01*
G01X8262356Y-4034031D01*
G01X8246869Y-4018544D01*
G01X8228927Y-4005981D01*
G01X8209076Y-3996724D01*
G01X8187920Y-3991055D01*
G01X8166100Y-3989146D01*
G01X8166100Y-3989146D01*
G01X8144280Y-3991055D01*
G01X8123124Y-3996724D01*
G01X8103273Y-4005981D01*
G01X8085331Y-4018544D01*
G01X8069844Y-4034031D01*
G01X8057281Y-4051973D01*
G01X8048024Y-4071824D01*
G01X8042355Y-4092980D01*
G01X8040446Y-4114800D01*
G01X6996020Y-4114800D01*
G01X6765534Y-3884314D01*
G01X6767731Y-3863182D01*
G01X6767575Y-3860800D01*
G01X8040446Y-3860800D01*
G01X8042355Y-3882620D01*
G01X8048024Y-3903776D01*
G01X8057281Y-3923627D01*
G01X8069844Y-3941569D01*
G01X8085331Y-3957056D01*
G01X8103273Y-3969619D01*
G01X8123124Y-3978876D01*
G01X8144280Y-3984545D01*
G01X8166100Y-3986454D01*
G01X8187920Y-3984545D01*
G01X8209076Y-3978876D01*
G01X8228927Y-3969619D01*
G01X8246869Y-3957056D01*
G01X8262356Y-3941569D01*
G01X8274919Y-3923627D01*
G01X8284176Y-3903776D01*
G01X8289845Y-3882620D01*
G01X8291754Y-3860800D01*
G01X8289845Y-3838980D01*
G01X8284176Y-3817824D01*
G01X8274919Y-3797973D01*
G01X8262356Y-3780031D01*
G01X8246869Y-3764544D01*
G01X8228927Y-3751981D01*
G01X8209076Y-3742724D01*
G01X8187920Y-3737055D01*
G01X8166100Y-3735146D01*
G01X8166100Y-3735146D01*
G01X8144280Y-3737055D01*
G01X8123124Y-3742724D01*
G01X8103273Y-3751981D01*
G01X8085331Y-3764544D01*
G01X8069844Y-3780031D01*
G01X8057281Y-3797973D01*
G01X8048024Y-3817824D01*
G01X8042355Y-3838980D01*
G01X8040446Y-3860800D01*
G01X6767575Y-3860800D01*
G01X6766337Y-3841982D01*
G01X6761391Y-3821320D01*
G01X6753034Y-3801787D01*
G01X6741506Y-3783941D01*
G01X6727136Y-3768292D01*
G01X6710335Y-3755288D01*
G01X6691583Y-3745300D01*
G01X6671417Y-3738614D01*
G01X6650413Y-3735421D01*
G01X6629170Y-3735813D01*
G01X6608298Y-3739778D01*
G01X6589378Y-3720858D01*
G01X6609959Y-3728274D01*
G01X6631515Y-3732007D01*
G01X6653392Y-3731945D01*
G01X6674926Y-3728090D01*
G01X6695465Y-3720559D01*
G01X6714387Y-3709579D01*
G01X6731118Y-3695483D01*
G01X6745150Y-3678700D01*
G01X6756059Y-3659737D01*
G01X6763513Y-3639169D01*
G01X6767287Y-3617621D01*
G01X6767277Y-3606800D01*
G01X8040446Y-3606800D01*
G01X8042355Y-3628620D01*
G01X8048024Y-3649776D01*
G01X8057281Y-3669627D01*
G01X8069844Y-3687569D01*
G01X8085331Y-3703056D01*
G01X8103273Y-3715619D01*
G01X8123124Y-3724876D01*
G01X8144280Y-3730545D01*
G01X8166100Y-3732454D01*
G01X8187920Y-3730545D01*
G01X8209076Y-3724876D01*
G01X8228927Y-3715619D01*
G01X8246869Y-3703056D01*
G01X8262356Y-3687569D01*
G01X8274919Y-3669627D01*
G01X8284176Y-3649776D01*
G01X8289845Y-3628620D01*
G01X8291754Y-3606800D01*
G01X8289845Y-3584980D01*
G01X8284176Y-3563824D01*
G01X8274919Y-3543973D01*
G01X8262356Y-3526031D01*
G01X8246869Y-3510544D01*
G01X8228927Y-3497981D01*
G01X8209076Y-3488724D01*
G01X8187920Y-3483055D01*
G01X8166100Y-3481146D01*
G01X8166100Y-3481146D01*
G01X8144280Y-3483055D01*
G01X8123124Y-3488724D01*
G01X8103273Y-3497981D01*
G01X8085331Y-3510544D01*
G01X8069844Y-3526031D01*
G01X8057281Y-3543973D01*
G01X8048024Y-3563824D01*
G01X8042355Y-3584980D01*
G01X8040446Y-3606800D01*
G01X6767277Y-3606800D01*
G01X6767266Y-3595744D01*
G01X6763452Y-3574202D01*
G01X6755959Y-3553649D01*
G01X6745014Y-3534706D01*
G01X6730951Y-3517949D01*
G01X6714194Y-3503886D01*
G01X6695251Y-3492941D01*
G01X6674698Y-3485448D01*
G01X6653156Y-3481634D01*
G01X6631279Y-3481613D01*
G01X6609731Y-3485387D01*
G01X6589163Y-3492841D01*
G01X6570200Y-3503750D01*
G01X6553417Y-3517782D01*
G01X6539321Y-3534513D01*
G01X6528341Y-3553435D01*
G01X6520810Y-3573974D01*
G01X6516955Y-3595508D01*
G01X6516893Y-3617385D01*
G01X6520626Y-3638941D01*
G01X6528042Y-3659522D01*
G01X6420654Y-3552134D01*
G01X6420654Y-3302779D01*
G01X6423038Y-3305162D01*
G01X6435123Y-3314436D01*
G01X6449197Y-3320266D01*
G01X6464300Y-3322254D01*
G01X6520216Y-3322254D01*
G01X6516782Y-3343614D01*
G01X6517064Y-3365246D01*
G01X6521052Y-3386509D01*
G01X6528629Y-3406773D01*
G01X6539568Y-3425437D01*
G01X6553548Y-3441948D01*
G01X6570152Y-3455816D01*
G01X6588889Y-3466631D01*
G01X6609203Y-3474071D01*
G01X6630493Y-3477917D01*
G01X6652126Y-3478053D01*
G01X6673463Y-3474477D01*
G01X6693869Y-3467294D01*
G01X6712741Y-3456717D01*
G01X6729519Y-3443059D01*
G01X6743706Y-3426726D01*
G01X6754881Y-3408202D01*
G01X6762712Y-3388035D01*
G01X6766969Y-3366824D01*
G01X6767524Y-3345197D01*
G01X6764360Y-3323796D01*
G01X6757573Y-3303254D01*
G01X8050627Y-3303254D01*
G01X8043632Y-3324684D01*
G01X8040579Y-3347019D01*
G01X8041566Y-3369541D01*
G01X8046562Y-3391523D01*
G01X8055405Y-3412259D01*
G01X8067810Y-3431082D01*
G01X8083380Y-3447384D01*
G01X8101611Y-3460643D01*
G01X8121919Y-3470430D01*
G01X8143648Y-3476432D01*
G01X8166100Y-3478454D01*
G01X8188552Y-3476432D01*
G01X8210281Y-3470430D01*
G01X8230589Y-3460643D01*
G01X8248820Y-3447384D01*
G01X8264390Y-3431082D01*
G01X8276795Y-3412259D01*
G01X8285638Y-3391523D01*
G01X8290634Y-3369541D01*
G01X8291621Y-3347019D01*
G01X8288568Y-3324684D01*
G01X8281573Y-3303254D01*
G01X8402329Y-3303254D01*
G01X8518550Y-3419475D01*
G01X8530636Y-3428749D01*
G01X8544710Y-3434578D01*
G01X8559813Y-3436567D01*
G01X9643742Y-3436567D01*
G01X9655584Y-3454807D01*
G01X9670421Y-3470706D01*
G01X9687800Y-3483779D01*
G01X9707190Y-3493625D01*
G01X9727999Y-3499944D01*
G01X9749590Y-3502542D01*
G01X9771304Y-3501340D01*
G01X9792476Y-3496376D01*
G01X9812461Y-3487800D01*
G01X9830646Y-3475874D01*
G01X9830646Y-3534551D01*
G01X9812771Y-3522793D01*
G01X9793146Y-3514272D01*
G01X9772350Y-3509240D01*
G01X9751000Y-3507846D01*
G01X9729727Y-3510131D01*
G01X9709160Y-3516028D01*
G01X9689908Y-3525361D01*
G01X9672540Y-3537856D01*
G01X9657570Y-3553142D01*
G01X9645441Y-3570768D01*
G01X9636512Y-3590211D01*
G01X9631046Y-3610896D01*
G01X9629206Y-3632213D01*
G01X9631046Y-3653529D01*
G01X9636512Y-3674215D01*
G01X9645441Y-3693658D01*
G01X9657570Y-3711283D01*
G01X9672540Y-3726569D01*
G01X9689908Y-3739064D01*
G01X9709160Y-3748398D01*
G01X9729727Y-3754294D01*
G01X9751000Y-3756579D01*
G01X9772350Y-3755185D01*
G01X9793146Y-3750153D01*
G01X9812771Y-3741632D01*
G01X9830646Y-3729874D01*
G01X9830646Y-3761793D01*
G01X9674860Y-3761793D01*
G01X9663044Y-3763349D01*
G01X9652033Y-3767910D01*
G01X9642578Y-3775165D01*
G01X9635323Y-3784620D01*
G01X9630762Y-3795631D01*
G01X9629206Y-3807447D01*
G01X9629206Y-3910662D01*
G01X9586222Y-3953646D01*
G01X9006755Y-3953646D01*
G01X8993717Y-3941396D01*
G01X8978800Y-3931520D01*
G01X8962431Y-3924300D01*
G01X8980460Y-3916154D01*
G01X8996655Y-3904791D01*
G01X9010450Y-3890610D01*
G01X9021362Y-3874108D01*
G01X9029008Y-3855861D01*
G01X9033121Y-3836510D01*
G01X9033557Y-3816731D01*
G01X9030301Y-3797217D01*
G01X9023466Y-3778651D01*
G01X9013292Y-3761684D01*
G01X9000136Y-3746909D01*
G01X8984457Y-3734843D01*
G01X8966804Y-3725910D01*
G01X8947797Y-3720422D01*
G01X8928100Y-3718571D01*
G01X8908403Y-3720422D01*
G01X8889396Y-3725910D01*
G01X8871743Y-3734843D01*
G01X8856064Y-3746909D01*
G01X8842908Y-3761684D01*
G01X8832734Y-3778651D01*
G01X8825899Y-3797217D01*
G01X8822643Y-3816731D01*
G01X8823079Y-3836510D01*
G01X8827192Y-3855861D01*
G01X8834838Y-3874108D01*
G01X8845750Y-3890610D01*
G01X8859545Y-3904791D01*
G01X8875740Y-3916154D01*
G01X8893769Y-3924300D01*
G01X8875593Y-3932531D01*
G01X8859286Y-3944030D01*
G01X8845431Y-3958388D01*
G01X8834519Y-3975094D01*
G01X8826941Y-3993552D01*
G01X8822966Y-4013105D01*
G01X8822735Y-4033057D01*
G01X8826256Y-4052697D01*
G01X8833405Y-4071326D01*
G01X8843927Y-4088280D01*
G01X8857446Y-4102955D01*
G01X8857446Y-4326834D01*
G01X8636840Y-4547440D01*
G01X8628053Y-4558147D01*
G01X8621524Y-4570362D01*
G01X8617504Y-4583616D01*
G01X8616146Y-4597400D01*
G01X8616146Y-4796105D01*
G01X8602886Y-4807268D01*
G01X8591737Y-4820542D01*
G01X8583032Y-4835531D01*
G01X8577027Y-4851792D01*
G01X8573901Y-4868841D01*
G01X8573747Y-4886175D01*
G01X8576569Y-4903277D01*
G01X8582283Y-4919642D01*
G01X8590721Y-4934784D01*
G01X8601631Y-4948254D01*
G01X8614691Y-4959652D01*
G01X8629513Y-4968640D01*
G01X8645657Y-4974952D01*
G01X8662644Y-4978400D01*
G01X8644039Y-4982340D01*
G01X8626508Y-4989708D01*
G01X8610675Y-5000243D01*
G01X8597106Y-5013568D01*
G01X8586286Y-5029207D01*
G01X8578601Y-5046603D01*
G01X8574324Y-5065133D01*
G01X8573610Y-5084137D01*
G01X8576483Y-5102936D01*
G01X8582840Y-5120859D01*
G01X8592455Y-5137267D01*
G01X8604985Y-5151573D01*
G01X8619982Y-5163267D01*
G01X8636911Y-5171932D01*
G01X8655168Y-5177257D01*
G01X8674100Y-5179054D01*
G01X8693032Y-5177257D01*
G01X8711289Y-5171932D01*
G01X8728218Y-5163267D01*
G01X8743215Y-5151573D01*
G01X8755745Y-5137267D01*
G01X8765360Y-5120859D01*
G01X8771717Y-5102936D01*
G01X8774590Y-5084137D01*
G01X8773876Y-5065133D01*
G01X8769599Y-5046603D01*
G01X8761914Y-5029207D01*
G01X8751094Y-5013568D01*
G01X8737525Y-5000243D01*
G01X8721692Y-4989708D01*
G01X8704161Y-4982340D01*
G01X8685556Y-4978400D01*
G01X8702808Y-4974873D01*
G01X8719182Y-4968394D01*
G01X8734176Y-4959160D01*
G01X8747331Y-4947454D01*
G01X9766300Y-4947454D01*
G01X9780084Y-4946096D01*
G01X9793338Y-4942076D01*
G01X9805553Y-4935547D01*
G01X9816260Y-4926760D01*
G01X9923346Y-4819674D01*
G01X9923346Y-6052746D01*
G01X6014654Y-6052746D01*
G01X6014654Y-5067300D01*
G01X6047746Y-5067300D01*
G01X6049543Y-5086232D01*
G01X6054868Y-5104489D01*
G01X6063533Y-5121418D01*
G01X6075227Y-5136415D01*
G01X6089533Y-5148945D01*
G01X6105941Y-5158560D01*
G01X6123864Y-5164917D01*
G01X6142663Y-5167790D01*
G01X6161667Y-5167076D01*
G01X6180197Y-5162799D01*
G01X6197593Y-5155114D01*
G01X6213232Y-5144294D01*
G01X6226557Y-5130725D01*
G01X6237092Y-5114892D01*
G01X6244460Y-5097361D01*
G01X6248400Y-5078756D01*
G01X6251770Y-5095475D01*
G01X6257914Y-5111386D01*
G01X6266656Y-5126030D01*
G01X6277746Y-5138988D01*
G01X6277746Y-5294300D01*
G01X6279103Y-5308084D01*
G01X6283124Y-5321338D01*
G01X6289653Y-5333553D01*
G01X6298440Y-5344260D01*
G01X6393646Y-5439466D01*
G01X6393646Y-5720404D01*
G01X6384041Y-5735202D01*
G01X6384041Y-5711505D01*
G01X6382485Y-5699689D01*
G01X6377925Y-5688678D01*
G01X6370669Y-5679223D01*
G01X6361214Y-5671967D01*
G01X6350203Y-5667407D01*
G01X6338387Y-5665851D01*
G01X6158387Y-5665851D01*
G01X6146571Y-5667407D01*
G01X6135561Y-5671967D01*
G01X6126105Y-5679223D01*
G01X6118850Y-5688678D01*
G01X6114289Y-5699689D01*
G01X6112734Y-5711505D01*
G01X6112734Y-5971504D01*
G01X6114289Y-5983321D01*
G01X6118850Y-5994331D01*
G01X6126105Y-6003787D01*
G01X6135561Y-6011042D01*
G01X6146571Y-6015603D01*
G01X6158387Y-6017158D01*
G01X6338387Y-6017158D01*
G01X6350203Y-6015603D01*
G01X6361214Y-6011042D01*
G01X6370669Y-6003787D01*
G01X6377925Y-5994331D01*
G01X6382485Y-5983321D01*
G01X6384041Y-5971504D01*
G01X6384041Y-5947808D01*
G01X6396286Y-5966029D01*
G01X6411310Y-5982037D01*
G01X6428719Y-5995412D01*
G01X6448057Y-6005804D01*
G01X6468819Y-6012939D01*
G01X6490460Y-6016633D01*
G01X6512413Y-6016787D01*
G01X6534103Y-6013399D01*
G01X6554963Y-6006555D01*
G01X6574446Y-5996437D01*
G01X6592042Y-5983309D01*
G01X6607289Y-5967514D01*
G01X6619789Y-5949466D01*
G01X6629214Y-5929639D01*
G01X6639063Y-5950547D01*
G01X6652319Y-5969480D01*
G01X6668595Y-5985888D01*
G01X6687421Y-5999295D01*
G01X6708250Y-6009311D01*
G01X6730477Y-6015647D01*
G01X6753456Y-6018117D01*
G01X6776522Y-6016650D01*
G01X6799003Y-6011290D01*
G01X6820249Y-6002190D01*
G01X6839641Y-5989617D01*
G01X6856618Y-5973933D01*
G01X6870685Y-5955596D01*
G01X6881436Y-5935137D01*
G01X6888558Y-5913149D01*
G01X7220698Y-5913149D01*
G01X7227806Y-5928434D01*
G01X7237365Y-5942319D01*
G01X7249107Y-5954413D01*
G01X7262702Y-5964379D01*
G01X7277770Y-5971935D01*
G01X7293888Y-5976872D01*
G01X7310604Y-5979049D01*
G01X7327448Y-5978406D01*
G01X7343949Y-5974961D01*
G01X7359644Y-5968810D01*
G01X7374092Y-5960127D01*
G01X7386888Y-5949154D01*
G01X7734993Y-5949154D01*
G01X7743773Y-5954828D01*
G01X7753614Y-5958357D01*
G01X7764000Y-5959554D01*
G01X7984000Y-5959554D01*
G01X7995816Y-5957998D01*
G01X8006827Y-5953437D01*
G01X8016282Y-5946182D01*
G01X8023537Y-5936727D01*
G01X8028098Y-5925716D01*
G01X8029654Y-5913900D01*
G01X8029654Y-5803900D01*
G01X8099346Y-5803900D01*
G01X8101263Y-5828250D01*
G01X8106964Y-5852000D01*
G01X8116312Y-5874565D01*
G01X8129073Y-5895391D01*
G01X8144936Y-5913964D01*
G01X8163509Y-5929827D01*
G01X8184335Y-5942588D01*
G01X8206900Y-5951936D01*
G01X8230650Y-5957637D01*
G01X8255000Y-5959554D01*
G01X8279350Y-5957637D01*
G01X8303100Y-5951936D01*
G01X8325665Y-5942588D01*
G01X8346491Y-5929827D01*
G01X8365064Y-5913964D01*
G01X8380927Y-5895391D01*
G01X8393688Y-5874565D01*
G01X8403036Y-5852000D01*
G01X8408737Y-5828250D01*
G01X8410654Y-5803900D01*
G01X8408737Y-5779550D01*
G01X8403036Y-5755800D01*
G01X8393688Y-5733235D01*
G01X8380927Y-5712409D01*
G01X8365064Y-5693836D01*
G01X8346491Y-5677973D01*
G01X8325665Y-5665212D01*
G01X8303100Y-5655864D01*
G01X8279350Y-5650163D01*
G01X8255000Y-5648246D01*
G01X8230650Y-5650163D01*
G01X8206900Y-5655864D01*
G01X8184335Y-5665212D01*
G01X8163509Y-5677973D01*
G01X8144936Y-5693836D01*
G01X8129073Y-5712409D01*
G01X8116312Y-5733235D01*
G01X8106964Y-5755800D01*
G01X8101263Y-5779550D01*
G01X8099346Y-5803900D01*
G01X8099346Y-5803900D01*
G01X8029654Y-5803900D01*
G01X8029654Y-5693900D01*
G01X8028701Y-5684624D01*
G01X8025884Y-5675735D01*
G01X8157266Y-5544354D01*
G01X9162251Y-5544354D01*
G01X9165371Y-5565910D01*
G01X9172166Y-5586603D01*
G01X9182433Y-5605812D01*
G01X9195862Y-5622959D01*
G01X9212051Y-5637530D01*
G01X9230513Y-5649086D01*
G01X9250694Y-5657281D01*
G01X9271986Y-5661867D01*
G01X9293750Y-5662708D01*
G01X9315332Y-5659778D01*
G01X9336085Y-5653165D01*
G01X9355383Y-5643068D01*
G01X9372648Y-5629789D01*
G01X9387361Y-5613729D01*
G01X9399079Y-5595370D01*
G01X9407451Y-5575263D01*
G01X9412225Y-5554012D01*
G01X9413022Y-5537200D01*
G01X9662046Y-5537200D01*
G01X9663955Y-5559020D01*
G01X9669624Y-5580176D01*
G01X9678880Y-5600027D01*
G01X9691443Y-5617969D01*
G01X9706931Y-5633456D01*
G01X9724873Y-5646019D01*
G01X9744723Y-5655276D01*
G01X9765880Y-5660945D01*
G01X9787700Y-5662854D01*
G01X9809519Y-5660945D01*
G01X9830676Y-5655276D01*
G01X9850526Y-5646019D01*
G01X9868468Y-5633456D01*
G01X9883956Y-5617969D01*
G01X9896519Y-5600027D01*
G01X9905775Y-5580176D01*
G01X9911444Y-5559020D01*
G01X9913353Y-5537200D01*
G01X9913353Y-5537200D01*
G01X9911444Y-5515380D01*
G01X9905775Y-5494224D01*
G01X9896519Y-5474373D01*
G01X9883956Y-5456431D01*
G01X9868468Y-5440944D01*
G01X9850526Y-5428381D01*
G01X9830676Y-5419124D01*
G01X9809519Y-5413455D01*
G01X9787700Y-5411546D01*
G01X9765880Y-5413455D01*
G01X9744723Y-5419124D01*
G01X9724873Y-5428381D01*
G01X9706931Y-5440944D01*
G01X9691443Y-5456431D01*
G01X9678880Y-5474373D01*
G01X9669624Y-5494224D01*
G01X9663955Y-5515380D01*
G01X9662046Y-5537200D01*
G01X9413022Y-5537200D01*
G01X9413257Y-5532256D01*
G01X9410517Y-5510648D01*
G01X9404087Y-5489839D01*
G01X9394160Y-5470452D01*
G01X9381034Y-5453071D01*
G01X9365104Y-5438217D01*
G01X9346848Y-5426338D01*
G01X9326816Y-5417789D01*
G01X9305608Y-5412829D01*
G01X9283862Y-5411605D01*
G01X9262231Y-5414155D01*
G01X9250336Y-5408058D01*
G01X9237507Y-5404310D01*
G01X9224201Y-5403046D01*
G01X8128000Y-5403046D01*
G01X8114216Y-5404404D01*
G01X8100962Y-5408424D01*
G01X8088747Y-5414953D01*
G01X8078040Y-5423740D01*
G01X7853534Y-5648246D01*
G01X7764000Y-5648246D01*
G01X7752184Y-5649802D01*
G01X7741173Y-5654363D01*
G01X7731718Y-5661618D01*
G01X7724463Y-5671073D01*
G01X7719902Y-5682084D01*
G01X7718346Y-5693900D01*
G01X7718346Y-5807846D01*
G01X7386888Y-5807846D01*
G01X7373930Y-5796756D01*
G01X7359286Y-5788014D01*
G01X7343375Y-5781870D01*
G01X7326656Y-5778500D01*
G01X7345609Y-5774451D01*
G01X7363436Y-5766843D01*
G01X7379473Y-5755961D01*
G01X7393128Y-5742206D01*
G01X7403893Y-5726090D01*
G01X7411370Y-5708209D01*
G01X7415281Y-5689226D01*
G01X7415481Y-5669846D01*
G01X7411963Y-5650786D01*
G01X7404858Y-5632754D01*
G01X7394428Y-5616419D01*
G01X7381061Y-5602385D01*
G01X7365251Y-5591173D01*
G01X7347586Y-5583199D01*
G01X7328721Y-5578759D01*
G01X7309354Y-5578016D01*
G01X7290203Y-5581000D01*
G01X7271980Y-5587598D01*
G01X7255359Y-5597567D01*
G01X7240956Y-5610536D01*
G01X7229307Y-5626026D01*
G01X7220842Y-5643461D01*
G01X7215876Y-5662195D01*
G01X7214592Y-5681534D01*
G01X7217038Y-5700760D01*
G01X7223125Y-5719161D01*
G01X7232625Y-5736055D01*
G01X7245186Y-5750814D01*
G01X7260344Y-5762892D01*
G01X7277535Y-5771841D01*
G01X6888558Y-5771841D01*
G01X6882037Y-5751305D01*
G01X6872347Y-5732060D01*
G01X6859732Y-5714592D01*
G01X6844511Y-5699342D01*
G01X6827067Y-5686694D01*
G01X6827067Y-4737113D01*
G01X6825709Y-4723329D01*
G01X6821688Y-4710075D01*
G01X6815159Y-4697859D01*
G01X6806373Y-4687153D01*
G01X6767754Y-4648534D01*
G01X6767754Y-4542800D01*
G01X6766198Y-4530984D01*
G01X6761637Y-4519973D01*
G01X6754382Y-4510518D01*
G01X6744927Y-4503263D01*
G01X6733916Y-4498702D01*
G01X6722100Y-4497146D01*
G01X6562100Y-4497146D01*
G01X6550284Y-4498702D01*
G01X6539273Y-4503263D01*
G01X6529818Y-4510518D01*
G01X6522563Y-4519973D01*
G01X6518002Y-4530984D01*
G01X6516446Y-4542800D01*
G01X6516446Y-4702800D01*
G01X6518002Y-4714616D01*
G01X6522563Y-4725627D01*
G01X6529818Y-4735082D01*
G01X6539273Y-4742337D01*
G01X6550284Y-4746898D01*
G01X6562100Y-4748454D01*
G01X6667834Y-4748454D01*
G01X6685759Y-4766379D01*
G01X6685759Y-5686694D01*
G01X6685759Y-5686694D01*
G01X6667692Y-5699877D01*
G01X6652036Y-5715849D01*
G01X6639218Y-5734177D01*
G01X6629586Y-5754361D01*
G01X6620301Y-5734435D01*
G01X6607919Y-5716269D01*
G01X6592765Y-5700342D01*
G01X6575238Y-5687072D01*
G01X6555797Y-5676808D01*
G01X6534954Y-5669818D01*
G01X6534954Y-5410200D01*
G01X6533596Y-5396416D01*
G01X6529576Y-5383162D01*
G01X6523047Y-5370947D01*
G01X6514260Y-5360240D01*
G01X6419054Y-5265034D01*
G01X6419054Y-5138988D01*
G01X6431379Y-5124271D01*
G01X6440686Y-5107481D01*
G01X6446636Y-5089230D01*
G01X6449012Y-5070181D01*
G01X6447730Y-5051027D01*
G01X6442834Y-5032465D01*
G01X6434503Y-5015171D01*
G01X6423040Y-4999772D01*
G01X6408862Y-4986830D01*
G01X6392485Y-4976814D01*
G01X6374505Y-4970090D01*
G01X6355575Y-4966902D01*
G01X6336384Y-4967366D01*
G01X6317630Y-4971465D01*
G01X6299995Y-4979049D01*
G01X6284121Y-4989844D01*
G01X6270585Y-5003456D01*
G01X6259879Y-5019390D01*
G01X6252394Y-5037067D01*
G01X6248400Y-5055844D01*
G01X6244460Y-5037239D01*
G01X6237092Y-5019708D01*
G01X6226557Y-5003875D01*
G01X6213232Y-4990306D01*
G01X6197593Y-4979486D01*
G01X6180197Y-4971801D01*
G01X6161667Y-4967524D01*
G01X6142663Y-4966810D01*
G01X6123864Y-4969683D01*
G01X6105941Y-4976040D01*
G01X6089533Y-4985655D01*
G01X6075227Y-4998185D01*
G01X6063533Y-5013182D01*
G01X6054868Y-5030111D01*
G01X6049543Y-5048368D01*
G01X6047746Y-5067300D01*
G01X6014654Y-5067300D01*
G01X6014654Y-4368800D01*
G01X6516446Y-4368800D01*
G01X6518355Y-4390620D01*
G01X6524024Y-4411776D01*
G01X6533281Y-4431627D01*
G01X6545844Y-4449569D01*
G01X6561331Y-4465056D01*
G01X6579273Y-4477619D01*
G01X6599124Y-4486876D01*
G01X6620280Y-4492545D01*
G01X6642100Y-4494454D01*
G01X6663920Y-4492545D01*
G01X6685076Y-4486876D01*
G01X6704927Y-4477619D01*
G01X6722869Y-4465056D01*
G01X6738356Y-4449569D01*
G01X6750919Y-4431627D01*
G01X6760176Y-4411776D01*
G01X6765845Y-4390620D01*
G01X6767754Y-4368800D01*
G01X6765845Y-4346980D01*
G01X6760176Y-4325824D01*
G01X6750919Y-4305973D01*
G01X6738356Y-4288031D01*
G01X6722869Y-4272544D01*
G01X6704927Y-4259981D01*
G01X6685076Y-4250724D01*
G01X6663920Y-4245055D01*
G01X6642100Y-4243146D01*
G01X6642100Y-4243146D01*
G01X6620280Y-4245055D01*
G01X6599124Y-4250724D01*
G01X6579273Y-4259981D01*
G01X6561331Y-4272544D01*
G01X6545844Y-4288031D01*
G01X6533281Y-4305973D01*
G01X6524024Y-4325824D01*
G01X6518355Y-4346980D01*
G01X6516446Y-4368800D01*
G01X6014654Y-4368800D01*
G01X6014654Y-1163000D01*
G37*
G36*
G01X8166100Y-1192454D02*
G01X8187941Y-1190541D01*
G01X8209117Y-1184861D01*
G01X8228984Y-1175586D01*
G01X8246936Y-1163000D01*
G01X9923346Y-1163000D01*
G01X9923346Y-2552266D01*
G01X9908693Y-2547256D01*
G01X9893300Y-2545559D01*
G01X9855981Y-2545559D01*
G01X9842011Y-2528706D01*
G01X9825303Y-2514564D01*
G01X9806375Y-2503569D01*
G01X9785813Y-2496062D01*
G01X9764253Y-2492276D01*
G01X9742364Y-2492327D01*
G01X9720822Y-2496215D01*
G01X9117747Y-1893140D01*
G01X9107041Y-1884353D01*
G01X9094825Y-1877824D01*
G01X9081571Y-1873804D01*
G01X9067787Y-1872446D01*
G01X8283930Y-1872446D01*
G01X8289785Y-1850955D01*
G01X8291754Y-1828767D01*
G01X8289774Y-1806580D01*
G01X8283907Y-1785091D01*
G01X8274338Y-1764977D01*
G01X8261368Y-1746867D01*
G01X8245403Y-1731333D01*
G01X8226947Y-1718861D01*
G01X8206579Y-1709845D01*
G01X8184938Y-1704566D01*
G01X8162706Y-1703192D01*
G01X8140580Y-1705765D01*
G01X8119256Y-1712204D01*
G01X8099404Y-1722308D01*
G01X8081648Y-1735758D01*
G01X8066546Y-1752132D01*
G01X8054573Y-1770915D01*
G01X8046105Y-1791518D01*
G01X8041407Y-1813292D01*
G01X8040628Y-1835553D01*
G01X8043792Y-1857602D01*
G01X8050799Y-1878746D01*
G01X7871466Y-1878746D01*
G01X7567520Y-1574800D01*
G01X8040446Y-1574800D01*
G01X8042355Y-1596620D01*
G01X8048024Y-1617776D01*
G01X8057281Y-1637627D01*
G01X8069844Y-1655569D01*
G01X8085331Y-1671056D01*
G01X8103273Y-1683619D01*
G01X8123124Y-1692876D01*
G01X8144280Y-1698545D01*
G01X8166100Y-1700454D01*
G01X8187920Y-1698545D01*
G01X8209076Y-1692876D01*
G01X8228927Y-1683619D01*
G01X8246869Y-1671056D01*
G01X8262356Y-1655569D01*
G01X8274919Y-1637627D01*
G01X8284176Y-1617776D01*
G01X8289845Y-1596620D01*
G01X8291754Y-1574800D01*
G01X8289845Y-1552980D01*
G01X8284176Y-1531824D01*
G01X8274919Y-1511973D01*
G01X8262356Y-1494031D01*
G01X8246869Y-1478544D01*
G01X8228927Y-1465981D01*
G01X8209076Y-1456724D01*
G01X8187920Y-1451055D01*
G01X8166100Y-1449146D01*
G01X8166100Y-1449146D01*
G01X8144280Y-1451055D01*
G01X8123124Y-1456724D01*
G01X8103273Y-1465981D01*
G01X8085331Y-1478544D01*
G01X8069844Y-1494031D01*
G01X8057281Y-1511973D01*
G01X8048024Y-1531824D01*
G01X8042355Y-1552980D01*
G01X8040446Y-1574800D01*
G01X7567520Y-1574800D01*
G01X7313520Y-1320800D01*
G01X8040446Y-1320800D01*
G01X8042355Y-1342620D01*
G01X8048024Y-1363776D01*
G01X8057281Y-1383627D01*
G01X8069844Y-1401569D01*
G01X8085331Y-1417056D01*
G01X8103273Y-1429619D01*
G01X8123124Y-1438876D01*
G01X8144280Y-1444545D01*
G01X8166100Y-1446454D01*
G01X8187920Y-1444545D01*
G01X8209076Y-1438876D01*
G01X8228927Y-1429619D01*
G01X8246869Y-1417056D01*
G01X8262356Y-1401569D01*
G01X8274919Y-1383627D01*
G01X8284176Y-1363776D01*
G01X8289845Y-1342620D01*
G01X8291754Y-1320800D01*
G01X8289845Y-1298980D01*
G01X8284176Y-1277824D01*
G01X8274919Y-1257973D01*
G01X8262356Y-1240031D01*
G01X8246869Y-1224544D01*
G01X8228927Y-1211981D01*
G01X8209076Y-1202724D01*
G01X8187920Y-1197055D01*
G01X8166100Y-1195146D01*
G01X8166100Y-1195146D01*
G01X8144280Y-1197055D01*
G01X8123124Y-1202724D01*
G01X8103273Y-1211981D01*
G01X8085331Y-1224544D01*
G01X8069844Y-1240031D01*
G01X8057281Y-1257973D01*
G01X8048024Y-1277824D01*
G01X8042355Y-1298980D01*
G01X8040446Y-1320800D01*
G01X7313520Y-1320800D01*
G01X7276260Y-1283540D01*
G01X7265553Y-1274753D01*
G01X7253338Y-1268224D01*
G01X7240084Y-1264204D01*
G01X7226300Y-1262846D01*
G01X6753591Y-1262846D01*
G01X6742233Y-1244891D01*
G01X6728013Y-1229106D01*
G01X6711337Y-1215942D01*
G01X6692681Y-1205776D01*
G01X6672579Y-1198899D01*
G01X6651606Y-1195506D01*
G01X6630361Y-1195696D01*
G01X6609452Y-1199462D01*
G01X6589476Y-1206697D01*
G01X6571004Y-1217194D01*
G01X6554565Y-1230653D01*
G01X6540629Y-1246689D01*
G01X6529593Y-1264844D01*
G01X6521774Y-1284598D01*
G01X6517395Y-1305388D01*
G01X6516581Y-1326618D01*
G01X6519355Y-1347682D01*
G01X6525639Y-1367977D01*
G01X6535252Y-1386924D01*
G01X6547919Y-1403980D01*
G01X6563279Y-1418658D01*
G01X6580893Y-1430539D01*
G01X6600256Y-1439282D01*
G01X6620816Y-1444638D01*
G01X6641984Y-1446454D01*
G01X6663155Y-1444677D01*
G01X6683725Y-1439359D01*
G01X6703104Y-1430652D01*
G01X6720739Y-1418804D01*
G01X6736127Y-1404154D01*
G01X7197034Y-1404154D01*
G01X7792240Y-1999360D01*
G01X7802947Y-2008147D01*
G01X7815162Y-2014676D01*
G01X7828416Y-2018696D01*
G01X7842200Y-2020054D01*
G01X8057234Y-2020054D01*
G01X8047890Y-2040194D01*
G01X8042236Y-2061665D01*
G01X8040450Y-2083795D01*
G01X8042587Y-2105894D01*
G01X8048580Y-2127273D01*
G01X8058241Y-2147262D01*
G01X8071271Y-2165240D01*
G01X8087261Y-2180643D01*
G01X8105712Y-2192992D01*
G01X8126049Y-2201900D01*
G01X8147636Y-2207090D01*
G01X8169800Y-2208399D01*
G01X8191848Y-2205787D01*
G01X8213093Y-2199336D01*
G01X8232870Y-2189246D01*
G01X8250562Y-2175832D01*
G01X8265618Y-2159514D01*
G01X8277566Y-2140801D01*
G01X8286035Y-2120277D01*
G01X8290759Y-2098583D01*
G01X8291591Y-2076397D01*
G01X8288505Y-2054410D01*
G01X8281597Y-2033309D01*
G01X8271083Y-2013754D01*
G01X9038521Y-2013754D01*
G01X9629717Y-2604949D01*
G01X9629562Y-2625622D01*
G01X9632834Y-2646036D01*
G01X9639441Y-2665625D01*
G01X9649201Y-2683849D01*
G01X9661845Y-2700206D01*
G01X9677023Y-2714242D01*
G01X9694316Y-2725571D01*
G01X9713247Y-2733880D01*
G01X9733292Y-2738938D01*
G01X9753898Y-2740606D01*
G01X9774496Y-2738839D01*
G01X9794517Y-2733685D01*
G01X9813407Y-2725286D01*
G01X9830646Y-2713874D01*
G01X9830646Y-2772551D01*
G01X9812771Y-2760793D01*
G01X9793146Y-2752272D01*
G01X9772350Y-2747240D01*
G01X9751000Y-2745846D01*
G01X9729727Y-2748131D01*
G01X9709160Y-2754028D01*
G01X9689908Y-2763361D01*
G01X9672540Y-2775856D01*
G01X9657570Y-2791142D01*
G01X9645441Y-2808768D01*
G01X9636512Y-2828211D01*
G01X9631046Y-2848896D01*
G01X9629206Y-2870213D01*
G01X9631046Y-2891529D01*
G01X9636512Y-2912215D01*
G01X9645441Y-2931658D01*
G01X9657570Y-2949283D01*
G01X9672540Y-2964569D01*
G01X9689908Y-2977064D01*
G01X9709160Y-2986398D01*
G01X9729727Y-2992294D01*
G01X9751000Y-2994579D01*
G01X9772350Y-2993185D01*
G01X9793146Y-2988153D01*
G01X9812771Y-2979632D01*
G01X9830646Y-2967874D01*
G01X9830646Y-3026551D01*
G01X9812461Y-3014626D01*
G01X9792476Y-3006050D01*
G01X9771304Y-3001085D01*
G01X9749590Y-2999883D01*
G01X9727999Y-3002482D01*
G01X9707190Y-3008800D01*
G01X9687800Y-3018647D01*
G01X9670421Y-3031719D01*
G01X9655584Y-3047618D01*
G01X9643742Y-3065859D01*
G01X8533184Y-3065859D01*
G01X8416963Y-2949638D01*
G01X8404877Y-2940364D01*
G01X8390803Y-2934534D01*
G01X8375700Y-2932546D01*
G01X8256042Y-2932546D01*
G01X8269591Y-2916063D01*
G01X8280156Y-2897526D01*
G01X8287433Y-2877468D01*
G01X8291211Y-2856468D01*
G01X8291381Y-2835131D01*
G01X8287939Y-2814074D01*
G01X8280984Y-2793902D01*
G01X8270716Y-2775198D01*
G01X8257431Y-2758501D01*
G01X8241513Y-2744293D01*
G01X8223421Y-2732982D01*
G01X8203675Y-2724896D01*
G01X8182846Y-2720267D01*
G01X8161534Y-2719229D01*
G01X8140354Y-2721812D01*
G01X8119917Y-2727941D01*
G01X8100810Y-2737440D01*
G01X8083587Y-2750035D01*
G01X8068743Y-2765362D01*
G01X8056706Y-2782979D01*
G01X8047823Y-2802380D01*
G01X8042351Y-2823003D01*
G01X8040447Y-2844255D01*
G01X8042167Y-2865523D01*
G01X8047460Y-2886193D01*
G01X8056174Y-2905669D01*
G01X8068057Y-2923391D01*
G01X8082768Y-2938846D01*
G01X7023100Y-2938846D01*
G01X7007997Y-2940834D01*
G01X6993923Y-2946664D01*
G01X6981838Y-2955938D01*
G01X6935429Y-3002346D01*
G01X6722633Y-3002346D01*
G01X6704516Y-2989745D01*
G01X6684475Y-2980507D01*
G01X6663126Y-2974918D01*
G01X6641129Y-2973150D01*
G01X6619162Y-2975258D01*
G01X6597903Y-2981176D01*
G01X6578006Y-2990722D01*
G01X6560087Y-3003602D01*
G01X6544697Y-3019418D01*
G01X6532311Y-3037683D01*
G01X6523312Y-3057832D01*
G01X6517977Y-3079246D01*
G01X6516470Y-3101262D01*
G01X6518839Y-3123203D01*
G01X6525009Y-3144391D01*
G01X6534790Y-3164172D01*
G01X6547882Y-3181938D01*
G01X6563880Y-3197139D01*
G01X6556144Y-3203638D01*
G01X6554235Y-3205546D01*
G01X6488471Y-3205546D01*
G01X6471854Y-3188929D01*
G01X6471854Y-2983271D01*
G01X6538794Y-2916331D01*
G01X6552663Y-2933060D01*
G01X6569206Y-2947149D01*
G01X6587930Y-2958178D01*
G01X6608274Y-2965815D01*
G01X6629629Y-2969833D01*
G01X6651358Y-2970112D01*
G01X6672809Y-2966643D01*
G01X6693343Y-2959530D01*
G01X6712343Y-2948986D01*
G01X6729243Y-2935326D01*
G01X6743537Y-2918959D01*
G01X6754796Y-2900373D01*
G01X6762686Y-2880126D01*
G01X6766969Y-2858822D01*
G01X6767518Y-2837098D01*
G01X6764315Y-2815606D01*
G01X6757458Y-2794986D01*
G01X6747150Y-2775856D01*
G01X6733701Y-2758788D01*
G01X6717512Y-2744292D01*
G01X6699068Y-2732802D01*
G01X6678920Y-2724662D01*
G01X6657671Y-2720115D01*
G01X6635956Y-2719296D01*
G01X6614425Y-2722232D01*
G01X6593722Y-2728833D01*
G01X6574465Y-2738902D01*
G01X6557231Y-2752138D01*
G01X6542536Y-2768146D01*
G01X6530818Y-2786446D01*
G01X6527800Y-2786446D01*
G01X6512697Y-2788434D01*
G01X6498623Y-2794264D01*
G01X6486538Y-2803538D01*
G01X6420654Y-2869421D01*
G01X6420654Y-2590800D01*
G01X6516446Y-2590800D01*
G01X6518355Y-2612620D01*
G01X6524024Y-2633776D01*
G01X6533281Y-2653627D01*
G01X6545844Y-2671569D01*
G01X6561331Y-2687056D01*
G01X6579273Y-2699619D01*
G01X6599124Y-2708876D01*
G01X6620280Y-2714545D01*
G01X6642100Y-2716454D01*
G01X6663920Y-2714545D01*
G01X6685076Y-2708876D01*
G01X6704927Y-2699619D01*
G01X6722869Y-2687056D01*
G01X6738356Y-2671569D01*
G01X6750919Y-2653627D01*
G01X6760176Y-2633776D01*
G01X6765845Y-2612620D01*
G01X6767754Y-2590800D01*
G01X8040446Y-2590800D01*
G01X8042355Y-2612620D01*
G01X8048024Y-2633776D01*
G01X8057281Y-2653627D01*
G01X8069844Y-2671569D01*
G01X8085331Y-2687056D01*
G01X8103273Y-2699619D01*
G01X8123124Y-2708876D01*
G01X8144280Y-2714545D01*
G01X8166100Y-2716454D01*
G01X8187920Y-2714545D01*
G01X8209076Y-2708876D01*
G01X8228927Y-2699619D01*
G01X8246869Y-2687056D01*
G01X8262356Y-2671569D01*
G01X8274919Y-2653627D01*
G01X8284176Y-2633776D01*
G01X8289845Y-2612620D01*
G01X8291754Y-2590800D01*
G01X8289845Y-2568980D01*
G01X8284176Y-2547824D01*
G01X8274919Y-2527973D01*
G01X8262356Y-2510031D01*
G01X8246869Y-2494544D01*
G01X8228927Y-2481981D01*
G01X8209076Y-2472724D01*
G01X8187920Y-2467055D01*
G01X8166100Y-2465146D01*
G01X8166100Y-2465146D01*
G01X8144280Y-2467055D01*
G01X8123124Y-2472724D01*
G01X8103273Y-2481981D01*
G01X8085331Y-2494544D01*
G01X8069844Y-2510031D01*
G01X8057281Y-2527973D01*
G01X8048024Y-2547824D01*
G01X8042355Y-2568980D01*
G01X8040446Y-2590800D01*
G01X6767754Y-2590800D01*
G01X6765845Y-2568980D01*
G01X6760176Y-2547824D01*
G01X6750919Y-2527973D01*
G01X6738356Y-2510031D01*
G01X6722869Y-2494544D01*
G01X6704927Y-2481981D01*
G01X6685076Y-2472724D01*
G01X6663920Y-2467055D01*
G01X6642100Y-2465146D01*
G01X6642100Y-2465146D01*
G01X6620280Y-2467055D01*
G01X6599124Y-2472724D01*
G01X6579273Y-2481981D01*
G01X6561331Y-2494544D01*
G01X6545844Y-2510031D01*
G01X6533281Y-2527973D01*
G01X6524024Y-2547824D01*
G01X6518355Y-2568980D01*
G01X6516446Y-2590800D01*
G01X6420654Y-2590800D01*
G01X6420654Y-2336800D01*
G01X6516446Y-2336800D01*
G01X6518355Y-2358620D01*
G01X6524024Y-2379776D01*
G01X6533281Y-2399627D01*
G01X6545844Y-2417569D01*
G01X6561331Y-2433056D01*
G01X6579273Y-2445619D01*
G01X6599124Y-2454876D01*
G01X6620280Y-2460545D01*
G01X6642100Y-2462454D01*
G01X6663920Y-2460545D01*
G01X6685076Y-2454876D01*
G01X6704927Y-2445619D01*
G01X6722869Y-2433056D01*
G01X6738356Y-2417569D01*
G01X6750919Y-2399627D01*
G01X6760176Y-2379776D01*
G01X6765845Y-2358620D01*
G01X6767754Y-2336800D01*
G01X8040446Y-2336800D01*
G01X8042355Y-2358620D01*
G01X8048024Y-2379776D01*
G01X8057281Y-2399627D01*
G01X8069844Y-2417569D01*
G01X8085331Y-2433056D01*
G01X8103273Y-2445619D01*
G01X8123124Y-2454876D01*
G01X8144280Y-2460545D01*
G01X8166100Y-2462454D01*
G01X8187920Y-2460545D01*
G01X8209076Y-2454876D01*
G01X8228927Y-2445619D01*
G01X8246869Y-2433056D01*
G01X8262356Y-2417569D01*
G01X8274919Y-2399627D01*
G01X8284176Y-2379776D01*
G01X8289845Y-2358620D01*
G01X8291754Y-2336800D01*
G01X8289845Y-2314980D01*
G01X8284176Y-2293824D01*
G01X8274919Y-2273973D01*
G01X8262356Y-2256031D01*
G01X8246869Y-2240544D01*
G01X8228927Y-2227981D01*
G01X8209076Y-2218724D01*
G01X8187920Y-2213055D01*
G01X8166100Y-2211146D01*
G01X8166100Y-2211146D01*
G01X8144280Y-2213055D01*
G01X8123124Y-2218724D01*
G01X8103273Y-2227981D01*
G01X8085331Y-2240544D01*
G01X8069844Y-2256031D01*
G01X8057281Y-2273973D01*
G01X8048024Y-2293824D01*
G01X8042355Y-2314980D01*
G01X8040446Y-2336800D01*
G01X6767754Y-2336800D01*
G01X6765845Y-2314980D01*
G01X6760176Y-2293824D01*
G01X6750919Y-2273973D01*
G01X6738356Y-2256031D01*
G01X6722869Y-2240544D01*
G01X6704927Y-2227981D01*
G01X6685076Y-2218724D01*
G01X6663920Y-2213055D01*
G01X6642100Y-2211146D01*
G01X6642100Y-2211146D01*
G01X6620280Y-2213055D01*
G01X6599124Y-2218724D01*
G01X6579273Y-2227981D01*
G01X6561331Y-2240544D01*
G01X6545844Y-2256031D01*
G01X6533281Y-2273973D01*
G01X6524024Y-2293824D01*
G01X6518355Y-2314980D01*
G01X6516446Y-2336800D01*
G01X6420654Y-2336800D01*
G01X6420654Y-2082800D01*
G01X6516446Y-2082800D01*
G01X6518355Y-2104620D01*
G01X6524024Y-2125776D01*
G01X6533281Y-2145627D01*
G01X6545844Y-2163569D01*
G01X6561331Y-2179056D01*
G01X6579273Y-2191619D01*
G01X6599124Y-2200876D01*
G01X6620280Y-2206545D01*
G01X6642100Y-2208454D01*
G01X6663920Y-2206545D01*
G01X6685076Y-2200876D01*
G01X6704927Y-2191619D01*
G01X6722869Y-2179056D01*
G01X6738356Y-2163569D01*
G01X6750919Y-2145627D01*
G01X6760176Y-2125776D01*
G01X6765845Y-2104620D01*
G01X6767754Y-2082800D01*
G01X6765845Y-2060980D01*
G01X6760176Y-2039824D01*
G01X6750919Y-2019973D01*
G01X6738356Y-2002031D01*
G01X6722869Y-1986544D01*
G01X6704927Y-1973981D01*
G01X6685076Y-1964724D01*
G01X6663920Y-1959055D01*
G01X6642100Y-1957146D01*
G01X6642100Y-1957146D01*
G01X6620280Y-1959055D01*
G01X6599124Y-1964724D01*
G01X6579273Y-1973981D01*
G01X6561331Y-1986544D01*
G01X6545844Y-2002031D01*
G01X6533281Y-2019973D01*
G01X6524024Y-2039824D01*
G01X6518355Y-2060980D01*
G01X6516446Y-2082800D01*
G01X6420654Y-2082800D01*
G01X6420654Y-1828800D01*
G01X6516446Y-1828800D01*
G01X6518355Y-1850620D01*
G01X6524024Y-1871776D01*
G01X6533281Y-1891627D01*
G01X6545844Y-1909569D01*
G01X6561331Y-1925056D01*
G01X6579273Y-1937619D01*
G01X6599124Y-1946876D01*
G01X6620280Y-1952545D01*
G01X6642100Y-1954454D01*
G01X6663920Y-1952545D01*
G01X6685076Y-1946876D01*
G01X6704927Y-1937619D01*
G01X6722869Y-1925056D01*
G01X6738356Y-1909569D01*
G01X6750919Y-1891627D01*
G01X6760176Y-1871776D01*
G01X6765845Y-1850620D01*
G01X6767754Y-1828800D01*
G01X6765845Y-1806980D01*
G01X6760176Y-1785824D01*
G01X6750919Y-1765973D01*
G01X6738356Y-1748031D01*
G01X6722869Y-1732544D01*
G01X6704927Y-1719981D01*
G01X6685076Y-1710724D01*
G01X6663920Y-1705055D01*
G01X6642100Y-1703146D01*
G01X6642100Y-1703146D01*
G01X6620280Y-1705055D01*
G01X6599124Y-1710724D01*
G01X6579273Y-1719981D01*
G01X6561331Y-1732544D01*
G01X6545844Y-1748031D01*
G01X6533281Y-1765973D01*
G01X6524024Y-1785824D01*
G01X6518355Y-1806980D01*
G01X6516446Y-1828800D01*
G01X6420654Y-1828800D01*
G01X6420654Y-1574800D01*
G01X6516446Y-1574800D01*
G01X6518355Y-1596620D01*
G01X6524024Y-1617776D01*
G01X6533281Y-1637627D01*
G01X6545844Y-1655569D01*
G01X6561331Y-1671056D01*
G01X6579273Y-1683619D01*
G01X6599124Y-1692876D01*
G01X6620280Y-1698545D01*
G01X6642100Y-1700454D01*
G01X6663920Y-1698545D01*
G01X6685076Y-1692876D01*
G01X6704927Y-1683619D01*
G01X6722869Y-1671056D01*
G01X6738356Y-1655569D01*
G01X6750919Y-1637627D01*
G01X6760176Y-1617776D01*
G01X6765845Y-1596620D01*
G01X6767754Y-1574800D01*
G01X6765845Y-1552980D01*
G01X6760176Y-1531824D01*
G01X6750919Y-1511973D01*
G01X6738356Y-1494031D01*
G01X6722869Y-1478544D01*
G01X6704927Y-1465981D01*
G01X6685076Y-1456724D01*
G01X6663920Y-1451055D01*
G01X6642100Y-1449146D01*
G01X6642100Y-1449146D01*
G01X6620280Y-1451055D01*
G01X6599124Y-1456724D01*
G01X6579273Y-1465981D01*
G01X6561331Y-1478544D01*
G01X6545844Y-1494031D01*
G01X6533281Y-1511973D01*
G01X6524024Y-1531824D01*
G01X6518355Y-1552980D01*
G01X6516446Y-1574800D01*
G01X6420654Y-1574800D01*
G01X6420654Y-1163000D01*
G01X6561264Y-1163000D01*
G01X6579216Y-1175586D01*
G01X6599083Y-1184861D01*
G01X6620259Y-1190541D01*
G01X6642100Y-1192454D01*
G01X6663941Y-1190541D01*
G01X6685117Y-1184861D01*
G01X6704984Y-1175586D01*
G01X6722936Y-1163000D01*
G01X8085264Y-1163000D01*
G01X8103216Y-1175586D01*
G01X8123083Y-1184861D01*
G01X8144259Y-1190541D01*
G01X8166100Y-1192454D01*
G37*
G54D10*
G01X6014654Y-1163000D02*
G01X6279346Y-1163000D01*
G01X6279346Y-3581400D01*
G03X6300040Y-3631360I70654J0D01*
G01X6517061Y-3848381D01*
G03X6665614Y-3984234I125039J-12419D01*
G01X6674877Y-3993496D01*
G03X6553249Y-4203651I-32777J-121304D01*
G03X6763404Y-4082023I88851J88851D01*
G01X7117546Y-4436166D01*
G01X7117546Y-5098812D01*
G03X7176744Y-5270500I70654J-71688D01*
G03X7188200Y-5471154I11456J-100000D01*
G03X7199656Y-5270500I0J100654D01*
G03X7258854Y-5098812I-11456J100000D01*
G01X7258854Y-4406900D01*
G03X7238160Y-4356940I-70654J0D01*
G01X6765534Y-3884314D01*
G03X6608298Y-3739778I-123434J23514D01*
G01X6589378Y-3720858D01*
G03X6730951Y-3517949I52722J114058D01*
G03X6528042Y-3659522I-88851J-88851D01*
G01X6420654Y-3552134D01*
G01X6420654Y-3302779D01*
G01X6423038Y-3305162D01*
G03X6464300Y-3322254I41262J41262D01*
G01X6520216Y-3322254D01*
G03X6652126Y-3478053I121884J-30546D01*
G03X6757573Y-3303254I-10026J125253D01*
G01X8050627Y-3303254D01*
G03X8166100Y-3478454I115473J-49546D01*
G03X8281573Y-3303254I0J125654D01*
G01X8402329Y-3303254D01*
G01X8518550Y-3419475D01*
G03X8559813Y-3436567I41262J41262D01*
G01X9643742Y-3436567D01*
G03X9830646Y-3475874I109858J58354D01*
G01X9830646Y-3534551D01*
G03X9629206Y-3632213I-77046J-97661D01*
G03X9830646Y-3729874I124394J0D01*
G01X9830646Y-3761793D01*
G01X9674860Y-3761793D01*
G03X9629206Y-3807447I0J-45654D01*
G01X9629206Y-3910662D01*
G01X9586222Y-3953646D01*
G01X9006755Y-3953646D01*
G03X8962431Y-3924300I-78655J-70654D01*
G03X8928100Y-3718571I-34331J100000D01*
G03X8893769Y-3924300I0J-105729D01*
G03X8857446Y-4102955I34331J-100000D01*
G01X8857446Y-4326834D01*
G01X8636840Y-4547440D01*
G03X8616146Y-4597400I49960J-49960D01*
G01X8616146Y-4796105D01*
G03X8576569Y-4903277I57954J-82295D01*
G03X8662644Y-4978400I97531J24877D01*
G03X8674100Y-5179054I11456J-100000D01*
G03X8685556Y-4978400I0J100654D01*
G03X8747331Y-4947454I-11456J100000D01*
G01X9766300Y-4947454D01*
G03X9816260Y-4926760I0J70654D01*
G01X9923346Y-4819674D01*
G01X9923346Y-6052746D01*
G01X6014654Y-6052746D01*
G01X6014654Y-1163000D01*
G01X6685759Y-5686694D02*
G03X6629586Y-5754361I70654J-115801D01*
G03X6534954Y-5669818I-127198J-47143D01*
G01X6534954Y-5410200D01*
G03X6514260Y-5360240I-70654J0D01*
G01X6419054Y-5265034D01*
G01X6419054Y-5138988D01*
G03X6392485Y-4976814I-70654J71688D01*
G03X6248400Y-5055844I-44086J-90486D01*
G03X6047746Y-5067300I-100000J-11456D01*
G03X6248400Y-5078756I100654J0D01*
G03X6277746Y-5138988I100000J11456D01*
G01X6277746Y-5294300D01*
G03X6298440Y-5344260I70654J0D01*
G01X6393646Y-5439466D01*
G01X6393646Y-5720404D01*
G03X6384041Y-5735202I108741J-81101D01*
G01X6384041Y-5711505D01*
G03X6338387Y-5665851I-45654J0D01*
G01X6158387Y-5665851D01*
G03X6112734Y-5711505I0J-45654D01*
G01X6112734Y-5971504D01*
G03X6158387Y-6017158I45654J0D01*
G01X6338387Y-6017158D01*
G03X6384041Y-5971504I0J45654D01*
G01X6384041Y-5947808D01*
G03X6629214Y-5929639I118346J66303D01*
G03X6888558Y-5913149I127198J47143D01*
G01X7220698Y-5913149D01*
G03X7293888Y-5976872I94502J34649D01*
G03X7386888Y-5949154I21312J98372D01*
G01X7734993Y-5949154D01*
G03X7764000Y-5959554I29008J35254D01*
G01X7984000Y-5959554D01*
G03X8029654Y-5913900I0J45654D01*
G01X8029654Y-5693900D01*
G03X8025884Y-5675735I-45654J0D01*
G01X8157266Y-5544354D01*
G01X9162251Y-5544354D01*
G03X9387361Y-5613729I125450J7154D01*
G03X9262231Y-5414155I-99660J76529D01*
G03X9224201Y-5403046I-38030J-59545D01*
G01X8128000Y-5403046D01*
G03X8078040Y-5423740I0J-70654D01*
G01X7853534Y-5648246D01*
G01X7764000Y-5648246D01*
G03X7718346Y-5693900I0J-45654D01*
G01X7718346Y-5807846D01*
G01X7386888Y-5807846D01*
G03X7326656Y-5778500I-71688J-70654D01*
G03X7328721Y-5578759I-11456J100000D01*
G03X7277535Y-5771841I-13521J-99742D01*
G01X6888558Y-5771841D01*
G03X6827067Y-5686694I-132145J-30654D01*
G01X6827067Y-4737113D01*
G03X6806373Y-4687153I-70654J0D01*
G01X6767754Y-4648534D01*
G01X6767754Y-4542800D01*
G03X6722100Y-4497146I-45654J0D01*
G01X6562100Y-4497146D01*
G03X6516446Y-4542800I0J-45654D01*
G01X6516446Y-4702800D01*
G03X6562100Y-4748454I45654J0D01*
G01X6667834Y-4748454D01*
G01X6685759Y-4766379D01*
G01X6685759Y-5686694D01*
G01X6642100Y-4243146D02*
G03X6642100Y-4494454I0J-125654D01*
G03X6642100Y-4243146I0J125654D01*
G01X8166100Y-3735146D02*
G03X8166100Y-3986454I0J-125654D01*
G03X8166100Y-3735146I0J125654D01*
G01X8166100Y-3989146D02*
G03X8166100Y-4240454I0J-125654D01*
G03X8166100Y-3989146I0J125654D01*
G01X8040446Y-4702800D02*
G03X8086100Y-4748454I45654J0D01*
G01X8246100Y-4748454D01*
G03X8291754Y-4702800I0J45654D01*
G01X8291754Y-4542800D01*
G03X8246100Y-4497146I-45654J0D01*
G01X8086100Y-4497146D01*
G03X8040446Y-4542800I0J-45654D01*
G01X8040446Y-4702800D01*
G01X8166100Y-4243146D02*
G03X8166100Y-4494454I0J-125654D01*
G03X8166100Y-4243146I0J125654D01*
G01X8166100Y-3481146D02*
G03X8166100Y-3732454I0J-125654D01*
G03X8166100Y-3481146I0J125654D01*
G01X8099346Y-5803900D02*
G03X8410654Y-5803900I155654J0D01*
G03X8099346Y-5803900I-155654J0D01*
G01X9913353Y-5537200D02*
G03X9662046Y-5537200I-125654J0D01*
G03X9913353Y-5537200I125654J0D01*
G01X8166100Y-1192454D02*
G03X8246936Y-1163000I0J125654D01*
G01X9923346Y-1163000D01*
G01X9923346Y-2552266D01*
G03X9893300Y-2545559I-30046J-63947D01*
G01X9855981Y-2545559D01*
G03X9720822Y-2496215I-102381J-70654D01*
G01X9117747Y-1893140D01*
G03X9067787Y-1872446I-49960J-49960D01*
G01X8283930Y-1872446D01*
G03X8162706Y-1703192I-117830J43646D01*
G03X8050799Y-1878746I3394J-125608D01*
G01X7871466Y-1878746D01*
G01X7276260Y-1283540D01*
G03X7226300Y-1262846I-49960J-49960D01*
G01X6753591Y-1262846D01*
G03X6517395Y-1305388I-111491J-57954D01*
G03X6736127Y-1404154I124705J-15412D01*
G01X7197034Y-1404154D01*
G01X7792240Y-1999360D01*
G03X7842200Y-2020054I49960J49960D01*
G01X8057234Y-2020054D01*
G03X8169800Y-2208399I108866J-62746D01*
G03X8271083Y-2013754I-3700J125599D01*
G01X9038521Y-2013754D01*
G01X9629717Y-2604949D01*
G03X9694316Y-2725571I123883J-11263D01*
G03X9830646Y-2713874I59284J109359D01*
G01X9830646Y-2772551D01*
G03X9629206Y-2870213I-77046J-97661D01*
G03X9830646Y-2967874I124394J0D01*
G01X9830646Y-3026551D01*
G03X9643742Y-3065859I-77046J-97661D01*
G01X8533184Y-3065859D01*
G01X8416963Y-2949638D01*
G03X8375700Y-2932546I-41262J-41262D01*
G01X8256042Y-2932546D01*
G03X8161534Y-2719229I-89942J87746D01*
G03X8082768Y-2938846I4566J-125571D01*
G01X7023100Y-2938846D01*
G03X6981838Y-2955938I0J-58354D01*
G01X6935429Y-3002346D01*
G01X6722633Y-3002346D01*
G03X6544697Y-3019418I-80533J-96454D01*
G03X6563880Y-3197139I97403J-79382D01*
G03X6556144Y-3203638I33527J-47761D01*
G01X6554235Y-3205546D01*
G01X6488471Y-3205546D01*
G01X6471854Y-3188929D01*
G01X6471854Y-2983271D01*
G01X6538794Y-2916331D01*
G03X6767518Y-2837098I103306J71531D01*
G03X6530818Y-2786446I-125418J-7702D01*
G01X6527800Y-2786446D01*
G03X6486538Y-2803538I0J-58354D01*
G01X6420654Y-2869421D01*
G01X6420654Y-1163000D01*
G01X6561264Y-1163000D01*
G03X6642100Y-1192454I80836J96200D01*
G03X6722936Y-1163000I0J125654D01*
G01X8085264Y-1163000D01*
G03X8166100Y-1192454I80836J96200D01*
G01X6642100Y-1449146D02*
G03X6642100Y-1700454I0J-125654D01*
G03X6642100Y-1449146I0J125654D01*
G01X6642100Y-2211146D02*
G03X6642100Y-2462454I0J-125654D01*
G03X6642100Y-2211146I0J125654D01*
G01X6642100Y-2465146D02*
G03X6642100Y-2716454I0J-125654D01*
G03X6642100Y-2465146I0J125654D01*
G01X6642100Y-1957146D02*
G03X6642100Y-2208454I0J-125654D01*
G03X6642100Y-1957146I0J125654D01*
G01X6642100Y-1703146D02*
G03X6642100Y-1954454I0J-125654D01*
G03X6642100Y-1703146I0J125654D01*
G01X8166100Y-1195146D02*
G03X8166100Y-1446454I0J-125654D01*
G03X8166100Y-1195146I0J125654D01*
G01X8166100Y-1449146D02*
G03X8166100Y-1700454I0J-125654D01*
G03X8166100Y-1449146I0J125654D01*
G01X8166100Y-2211146D02*
G03X8166100Y-2462454I0J-125654D01*
G03X8166100Y-2211146I0J125654D01*
G01X8166100Y-2465146D02*
G03X8166100Y-2716454I0J-125654D01*
G03X8166100Y-2465146I0J125654D01*
G54D11*
G01X6642100Y-4289054D02*
G01X6642100Y-4263146D01*
G01X6642100Y-4448546D02*
G01X6642100Y-4474454D01*
G01X6721846Y-4368800D02*
G01X6747754Y-4368800D01*
G01X6562354Y-4368800D02*
G01X6536446Y-4368800D01*
G01X6093654Y-5067300D02*
G01X6067746Y-5067300D01*
G01X6148400Y-5012554D02*
G01X6148400Y-4986646D01*
G01X6148400Y-5122046D02*
G01X6148400Y-5147954D01*
G01X6158641Y-5841505D02*
G01X6132733Y-5841505D01*
G01X6248387Y-5711759D02*
G01X6248387Y-5685851D01*
G01X6248387Y-5971250D02*
G01X6248387Y-5997158D01*
G01X7188200Y-5425246D02*
G01X7188200Y-5451154D01*
G01X7133454Y-5370500D02*
G01X7107546Y-5370500D01*
G01X7242946Y-5370500D02*
G01X7268854Y-5370500D01*
G01X7315200Y-5623754D02*
G01X7315200Y-5597846D01*
G01X7260454Y-5678500D02*
G01X7234546Y-5678500D01*
G01X7369946Y-5678500D02*
G01X7395854Y-5678500D01*
G01X8145254Y-5803900D02*
G01X8119346Y-5803900D01*
G01X8364746Y-5803900D02*
G01X8390654Y-5803900D01*
G01X8255000Y-5694154D02*
G01X8255000Y-5668246D01*
G01X8255000Y-5913646D02*
G01X8255000Y-5939554D01*
G01X8674100Y-5133146D02*
G01X8674100Y-5159054D01*
G01X8619354Y-5078400D02*
G01X8593446Y-5078400D01*
G01X8728846Y-5078400D02*
G01X8754754Y-5078400D01*
G01X8928100Y-3764479D02*
G01X8928100Y-3738571D01*
G01X8987921Y-3824300D02*
G01X9013829Y-3824300D01*
G01X8868279Y-3824300D02*
G01X8842371Y-3824300D01*
G01X9753600Y-3553727D02*
G01X9753600Y-3527819D01*
G01X9753600Y-3710699D02*
G01X9753600Y-3736607D01*
G01X9675114Y-3632213D02*
G01X9649206Y-3632213D01*
G01X9753600Y-2791727D02*
G01X9753600Y-2765819D01*
G01X9753600Y-2948699D02*
G01X9753600Y-2974607D01*
G01X9675114Y-2870213D02*
G01X9649206Y-2870213D01*
G01X9867445Y-5537200D02*
G01X9893353Y-5537200D01*
G01X9707954Y-5537200D02*
G01X9682046Y-5537200D01*
G01X9787700Y-5616946D02*
G01X9787700Y-5642854D01*
G01X9787700Y-5457454D02*
G01X9787700Y-5431546D01*
G04 Copper End*

G04 Pad Start*
G54D12*
G01X9842500Y-927100D03*
G01X9410700Y-1016000D03*
G01X8953500Y-965200D03*
G01X9690100Y-1028700D03*
G01X9309100Y-787400D03*
G01X8750300Y-977900D03*
G01X8928100Y-787400D03*
G01X9690100Y-800100D03*
G01X6197600Y-393700D03*
G01X6616700Y-381000D03*
G01X6858000Y-393700D03*
G01X7419144Y-381000D03*
G01X7632700Y-381000D03*
G54D13*
G01X7353282Y-190495D03*
G01X7099282Y-190495D03*
G01X6845282Y-190495D03*
G01X6591282Y-190495D03*
G01X6337282Y-190495D03*
G54D14*
G01X6083308Y-190495D03*
G54D15*
G01X9753600Y-3886187D03*
G54D16*
G01X9753600Y-3632213D03*
G01X9753600Y-3378213D03*
G01X9753600Y-3124213D03*
G01X9753600Y-2870213D03*
G01X9753600Y-2616213D03*
G54D17*
G01X7874000Y-5803900D03*
G54D18*
G01X8255000Y-5803900D03*
G54D20*
G01X9067800Y-431800D03*
G54D21*
G01X9067800Y-177800D03*
G01X9321800Y-431800D03*
G01X9321800Y-177800D03*
G01X9575800Y-431800D03*
G01X9575800Y-177800D03*
G01X9829797Y-431800D03*
G01X9829797Y-177800D03*
G54D22*
G01X8166100Y-4622800D03*
G54D23*
G01X6642100Y-4368800D03*
G01X6642100Y-3860800D03*
G01X6642100Y-3352800D03*
G01X6642100Y-2844800D03*
G01X6642100Y-2336800D03*
G01X6642100Y-1828800D03*
G01X6642100Y-1320800D03*
G01X8166100Y-1066800D03*
G01X8166100Y-1574800D03*
G01X8166100Y-2082800D03*
G01X8166100Y-2590800D03*
G01X8166100Y-3098800D03*
G01X8166100Y-3606800D03*
G01X8166100Y-4114800D03*
G01X8166100Y-4368800D03*
G01X8166100Y-3860800D03*
G01X8166100Y-3352800D03*
G01X8166100Y-2844800D03*
G01X8166100Y-2336800D03*
G01X8166100Y-1828800D03*
G01X8166100Y-1320800D03*
G01X6642100Y-1066800D03*
G01X6642100Y-1574800D03*
G01X6642100Y-2082800D03*
G01X6642100Y-2590800D03*
G01X6642100Y-3098800D03*
G01X6642100Y-3606800D03*
G01X6642100Y-4114800D03*
G54D22*
G01X6642100Y-4622800D03*
G54D24*
G01X6502387Y-5841505D03*
G01X6756413Y-5842495D03*
G54D25*
G01X6248387Y-5841505D03*
G54D23*
G01X8458200Y-643699D03*
G01X8458200Y-143700D03*
G54D26*
G01X7315200Y-5878500D03*
G01X7315200Y-5678500D03*
G01X6148400Y-5067300D03*
G01X6348400Y-5067300D03*
G01X8674100Y-5078400D03*
G01X8674100Y-4878400D03*
G01X7188200Y-5370500D03*
G01X7188200Y-5170500D03*
G01X8077200Y-379400D03*
G01X8077200Y-179400D03*
G01X6210300Y-738200D03*
G01X6210300Y-938200D03*
G54D23*
G01X9287701Y-5537200D03*
G01X9787700Y-5537200D03*
G54D27*
G01X8928100Y-4024300D03*
G01X8928100Y-3824300D03*
G04 Pad End*

G04 Via Start*
G54D28*
G01X8928100Y-1206500D03*
G04 Via End*

G04 Track Start*
G54D29*
G01X8458200Y-143700D02*
G01X9033701Y-143700D01*
G01X9067800Y-177800D01*
G01X8458200Y-143700D02*
G01X8222501Y-379400D01*
G01X8077200Y-379400D01*
G54D11*
G01X9575800Y-431800D02*
G01X9481465Y-431800D01*
G01X9368565Y-544700D01*
G01X9275035Y-544700D01*
G01X9180700Y-335244D02*
G01X9164356Y-318900D01*
G01X8619754Y-431800D02*
G01X8356600Y-431800D01*
G01X9164356Y-318900D02*
G01X8732654Y-318900D01*
G01X8619754Y-431800D01*
G01X7721600Y-1066800D02*
G01X6642100Y-1066800D01*
G01X8356600Y-431800D02*
G01X7721600Y-1066800D01*
G01X9753600Y-3378213D02*
G01X8559813Y-3378213D01*
G01X6464300Y-3263900D02*
G01X6413500Y-3213100D01*
G01X6597406Y-3244900D02*
G01X6578406Y-3263900D01*
G01X6464300Y-3263900D01*
G01X6413500Y-3213100D02*
G01X6413500Y-2959100D01*
G01X6527800Y-2844800D02*
G01X6642100Y-2844800D01*
G01X6413500Y-2959100D02*
G01X6527800Y-2844800D01*
G01X8559813Y-3378213D02*
G01X8426500Y-3244900D01*
G01X6597406Y-3244900D01*
G01X6680200Y-3060700D02*
G01X6642100Y-3098800D01*
G01X6959600Y-3060700D02*
G01X6680200Y-3060700D01*
G01X8509013Y-3124213D02*
G01X8375700Y-2990900D01*
G01X9753600Y-3124213D02*
G01X8509013Y-3124213D01*
G01X8375700Y-2990900D02*
G01X8121406Y-2990900D01*
G01X7023100Y-2997200D02*
G01X6959600Y-3060700D01*
G01X8115106Y-2997200D02*
G01X7023100Y-2997200D01*
G01X8121406Y-2990900D02*
G01X8115106Y-2997200D01*
G54D29*
G01X6348400Y-5067300D02*
G01X6348400Y-5294300D01*
G01X6464300Y-5410200D01*
G01X6464300Y-5803417D01*
G01X6502387Y-5841505D01*
G01X6756413Y-5842495D02*
G01X6756413Y-4737113D01*
G01X6642100Y-4622800D01*
G01X7188200Y-5170500D02*
G01X7188200Y-4406900D01*
G01X6642100Y-3860800D01*
G01X6210300Y-738200D02*
G01X6427800Y-520700D01*
G01X7150100Y-520700D02*
G01X7289800Y-381000D01*
G01X7289800Y-253977D01*
G01X7353282Y-190495D01*
G01X6427800Y-520700D02*
G01X7150100Y-520700D01*
G01X6756413Y-5842495D02*
G01X7279196Y-5842495D01*
G01X7315200Y-5878500D01*
G01X7799400Y-5878500D01*
G01X7874000Y-5803900D01*
G01X7874000Y-5727700D01*
G01X8128000Y-5473700D01*
G01X9224201Y-5473700D01*
G01X9287701Y-5537200D01*
G54D11*
G01X9275035Y-544700D02*
G01X9180700Y-450365D01*
G01X9180700Y-335244D01*
G54D29*
G01X8458200Y-643699D02*
G01X8555800Y-546100D01*
G01X8953500Y-546100D01*
G01X9067800Y-431800D01*
G01X9753600Y-2616213D02*
G01X9893300Y-2616213D01*
G01X9766300Y-4876800D02*
G01X8675700Y-4876800D01*
G01X8674100Y-4878400D01*
G01X9893300Y-2616213D02*
G01X9901300Y-2624213D01*
G01X9901300Y-4741800D01*
G01X9766300Y-4876800D01*
G01X9753600Y-3886187D02*
G01X9615488Y-4024300D01*
G01X8928100Y-4024300D01*
G01X9753600Y-2616213D02*
G01X9740900Y-2616213D01*
G01X9067787Y-1943100D01*
G01X8221788Y-1943100D01*
G01X7226300Y-1333500D02*
G01X6654800Y-1333500D01*
G01X6642100Y-1320800D01*
G01X8221788Y-1943100D02*
G01X8215488Y-1949400D01*
G01X7842200Y-1949400D01*
G01X7226300Y-1333500D01*
G01X8928100Y-4024300D02*
G01X8928100Y-4356100D01*
G01X8686800Y-4597400D01*
G01X8686800Y-4865700D01*
G01X8675700Y-4876800D01*
G01X6083308Y-43361D02*
G01X6083308Y-190495D01*
G01X6642100Y-3860800D02*
G01X6629400Y-3860800D01*
G01X6350000Y-3581400D01*
G01X6350000Y-877900D01*
G01X6210300Y-738200D01*
G01X6208700Y-938200D02*
G01X6210300Y-938200D01*
G01X6083308Y-190495D02*
G01X6032500Y-241303D01*
G01X6032500Y-762000D01*
G01X6208700Y-938200D01*
G01X7872400Y25400D02*
G01X6152068Y25400D01*
G01X6083308Y-43361D01*
G01X7111982Y-177795D02*
G01X7137382Y-177795D01*
G01X7252982Y-62195D01*
G01X7446705Y-62195D01*
G01X7538510Y-154000D01*
G01X8051800Y-154000D01*
G01X7099282Y-190495D02*
G01X7111982Y-177795D01*
G01X8051800Y-154000D02*
G01X7872400Y25400D01*
G54D11*
G01X9829797Y-431800D02*
G01X9169397Y-1092200D01*
G01X8191500Y-1092200D01*
G01X8166100Y-1066800D01*
G04 Track End*

M02*

